<mxfile host="app.diagrams.net" modified="2020-09-17T15:32:10.074Z" agent="5.0 (Windows)" etag="4EsKcguo4nCqepaoqRP6" version="13.7.3" type="github">
  <diagram id="R2lEEEUBdFMjLlhIrx00" name="Page-1">
    <mxGraphModel dx="1422" dy="791" grid="1" gridSize="10" guides="1" tooltips="1" connect="1" arrows="1" fold="1" page="1" pageScale="1" pageWidth="850" pageHeight="1100" math="0" shadow="0" extFonts="Permanent Marker^https://fonts.googleapis.com/css?family=Permanent+Marker">
      <root>
        <mxCell id="0" />
        <mxCell id="1" parent="0" />
        <mxCell id="f8ZMk2chCt_CFVTAONVA-9" value="1-Many" style="edgeStyle=orthogonalEdgeStyle;rounded=0;orthogonalLoop=1;jettySize=auto;html=1;exitX=0.5;exitY=1;exitDx=0;exitDy=0;entryX=0.5;entryY=0;entryDx=0;entryDy=0;" edge="1" parent="1" source="f8ZMk2chCt_CFVTAONVA-1" target="f8ZMk2chCt_CFVTAONVA-7">
          <mxGeometry relative="1" as="geometry" />
        </mxCell>
        <mxCell id="f8ZMk2chCt_CFVTAONVA-10" value="1-Many" style="edgeStyle=orthogonalEdgeStyle;rounded=0;orthogonalLoop=1;jettySize=auto;html=1;exitX=0;exitY=0.5;exitDx=0;exitDy=0;entryX=0.5;entryY=0;entryDx=0;entryDy=0;" edge="1" parent="1" source="f8ZMk2chCt_CFVTAONVA-1" target="f8ZMk2chCt_CFVTAONVA-3">
          <mxGeometry relative="1" as="geometry" />
        </mxCell>
        <mxCell id="f8ZMk2chCt_CFVTAONVA-11" style="edgeStyle=orthogonalEdgeStyle;rounded=0;orthogonalLoop=1;jettySize=auto;html=1;exitX=1;exitY=0.5;exitDx=0;exitDy=0;entryX=0.5;entryY=0;entryDx=0;entryDy=0;" edge="1" parent="1" source="f8ZMk2chCt_CFVTAONVA-1" target="f8ZMk2chCt_CFVTAONVA-8">
          <mxGeometry relative="1" as="geometry" />
        </mxCell>
        <mxCell id="f8ZMk2chCt_CFVTAONVA-13" value="1-Many" style="edgeLabel;html=1;align=center;verticalAlign=middle;resizable=0;points=[];" vertex="1" connectable="0" parent="f8ZMk2chCt_CFVTAONVA-11">
          <mxGeometry x="-0.2833" y="-1" relative="1" as="geometry">
            <mxPoint as="offset" />
          </mxGeometry>
        </mxCell>
        <mxCell id="f8ZMk2chCt_CFVTAONVA-1" value="Online Shopping" style="whiteSpace=wrap;html=1;align=center;" vertex="1" parent="1">
          <mxGeometry x="140" y="80" width="100" height="40" as="geometry" />
        </mxCell>
        <mxCell id="f8ZMk2chCt_CFVTAONVA-2" value="Attribute" style="ellipse;whiteSpace=wrap;html=1;align=center;fontStyle=4;" vertex="1" parent="1">
          <mxGeometry x="20" y="160" width="100" height="40" as="geometry" />
        </mxCell>
        <mxCell id="f8ZMk2chCt_CFVTAONVA-3" value="Shopping History" style="ellipse;whiteSpace=wrap;html=1;align=center;fontStyle=4;" vertex="1" parent="1">
          <mxGeometry x="20" y="160" width="100" height="40" as="geometry" />
        </mxCell>
        <mxCell id="f8ZMk2chCt_CFVTAONVA-4" value="Attribute" style="ellipse;whiteSpace=wrap;html=1;align=center;fontStyle=4;" vertex="1" parent="1">
          <mxGeometry x="140" y="160" width="100" height="40" as="geometry" />
        </mxCell>
        <mxCell id="f8ZMk2chCt_CFVTAONVA-7" value="Search History" style="ellipse;whiteSpace=wrap;html=1;align=center;fontStyle=4;" vertex="1" parent="1">
          <mxGeometry x="140" y="160" width="100" height="40" as="geometry" />
        </mxCell>
        <mxCell id="f8ZMk2chCt_CFVTAONVA-8" value="Purchase History" style="ellipse;whiteSpace=wrap;html=1;align=center;fontStyle=4;" vertex="1" parent="1">
          <mxGeometry x="250" y="160" width="100" height="40" as="geometry" />
        </mxCell>
        <mxCell id="f8ZMk2chCt_CFVTAONVA-14" value="1-Many" style="edgeStyle=orthogonalEdgeStyle;rounded=0;orthogonalLoop=1;jettySize=auto;html=1;exitX=0.5;exitY=1;exitDx=0;exitDy=0;entryX=0.5;entryY=0;entryDx=0;entryDy=0;" edge="1" parent="1" source="f8ZMk2chCt_CFVTAONVA-18" target="f8ZMk2chCt_CFVTAONVA-22">
          <mxGeometry relative="1" as="geometry" />
        </mxCell>
        <mxCell id="f8ZMk2chCt_CFVTAONVA-15" value="1-Many" style="edgeStyle=orthogonalEdgeStyle;rounded=0;orthogonalLoop=1;jettySize=auto;html=1;exitX=0;exitY=0.5;exitDx=0;exitDy=0;entryX=0.5;entryY=0;entryDx=0;entryDy=0;" edge="1" parent="1" source="f8ZMk2chCt_CFVTAONVA-18" target="f8ZMk2chCt_CFVTAONVA-20">
          <mxGeometry relative="1" as="geometry" />
        </mxCell>
        <mxCell id="f8ZMk2chCt_CFVTAONVA-16" style="edgeStyle=orthogonalEdgeStyle;rounded=0;orthogonalLoop=1;jettySize=auto;html=1;exitX=1;exitY=0.5;exitDx=0;exitDy=0;entryX=0.5;entryY=0;entryDx=0;entryDy=0;" edge="1" parent="1" source="f8ZMk2chCt_CFVTAONVA-18" target="f8ZMk2chCt_CFVTAONVA-23">
          <mxGeometry relative="1" as="geometry" />
        </mxCell>
        <mxCell id="f8ZMk2chCt_CFVTAONVA-17" value="1-Many" style="edgeLabel;html=1;align=center;verticalAlign=middle;resizable=0;points=[];" vertex="1" connectable="0" parent="f8ZMk2chCt_CFVTAONVA-16">
          <mxGeometry x="-0.2833" y="-1" relative="1" as="geometry">
            <mxPoint as="offset" />
          </mxGeometry>
        </mxCell>
        <mxCell id="f8ZMk2chCt_CFVTAONVA-18" value="Online Shopping" style="whiteSpace=wrap;html=1;align=center;" vertex="1" parent="1">
          <mxGeometry x="140" y="80" width="100" height="40" as="geometry" />
        </mxCell>
        <mxCell id="f8ZMk2chCt_CFVTAONVA-19" value="Attribute" style="ellipse;whiteSpace=wrap;html=1;align=center;fontStyle=4;" vertex="1" parent="1">
          <mxGeometry x="20" y="160" width="100" height="40" as="geometry" />
        </mxCell>
        <mxCell id="f8ZMk2chCt_CFVTAONVA-20" value="Shopping History" style="ellipse;whiteSpace=wrap;html=1;align=center;fontStyle=4;" vertex="1" parent="1">
          <mxGeometry x="20" y="160" width="100" height="40" as="geometry" />
        </mxCell>
        <mxCell id="f8ZMk2chCt_CFVTAONVA-21" value="Attribute" style="ellipse;whiteSpace=wrap;html=1;align=center;fontStyle=4;" vertex="1" parent="1">
          <mxGeometry x="140" y="160" width="100" height="40" as="geometry" />
        </mxCell>
        <mxCell id="f8ZMk2chCt_CFVTAONVA-22" value="Search History" style="ellipse;whiteSpace=wrap;html=1;align=center;fontStyle=4;" vertex="1" parent="1">
          <mxGeometry x="140" y="160" width="100" height="40" as="geometry" />
        </mxCell>
        <mxCell id="f8ZMk2chCt_CFVTAONVA-23" value="Purchase History" style="ellipse;whiteSpace=wrap;html=1;align=center;fontStyle=4;" vertex="1" parent="1">
          <mxGeometry x="250" y="160" width="100" height="40" as="geometry" />
        </mxCell>
        <mxCell id="f8ZMk2chCt_CFVTAONVA-24" value="1-Many" style="edgeStyle=orthogonalEdgeStyle;rounded=0;orthogonalLoop=1;jettySize=auto;html=1;exitX=0.5;exitY=1;exitDx=0;exitDy=0;entryX=0.5;entryY=0;entryDx=0;entryDy=0;" edge="1" parent="1" source="f8ZMk2chCt_CFVTAONVA-28" target="f8ZMk2chCt_CFVTAONVA-32">
          <mxGeometry relative="1" as="geometry" />
        </mxCell>
        <mxCell id="f8ZMk2chCt_CFVTAONVA-25" value="1-Many" style="edgeStyle=orthogonalEdgeStyle;rounded=0;orthogonalLoop=1;jettySize=auto;html=1;exitX=0;exitY=0.5;exitDx=0;exitDy=0;entryX=0.5;entryY=0;entryDx=0;entryDy=0;" edge="1" parent="1" source="f8ZMk2chCt_CFVTAONVA-28" target="f8ZMk2chCt_CFVTAONVA-30">
          <mxGeometry relative="1" as="geometry" />
        </mxCell>
        <mxCell id="f8ZMk2chCt_CFVTAONVA-26" style="edgeStyle=orthogonalEdgeStyle;rounded=0;orthogonalLoop=1;jettySize=auto;html=1;exitX=1;exitY=0.5;exitDx=0;exitDy=0;entryX=0.5;entryY=0;entryDx=0;entryDy=0;" edge="1" parent="1" source="f8ZMk2chCt_CFVTAONVA-28" target="f8ZMk2chCt_CFVTAONVA-33">
          <mxGeometry relative="1" as="geometry" />
        </mxCell>
        <mxCell id="f8ZMk2chCt_CFVTAONVA-27" value="1-Many" style="edgeLabel;html=1;align=center;verticalAlign=middle;resizable=0;points=[];" vertex="1" connectable="0" parent="f8ZMk2chCt_CFVTAONVA-26">
          <mxGeometry x="-0.2833" y="-1" relative="1" as="geometry">
            <mxPoint as="offset" />
          </mxGeometry>
        </mxCell>
        <mxCell id="f8ZMk2chCt_CFVTAONVA-28" value="Amazon Alexa" style="whiteSpace=wrap;html=1;align=center;" vertex="1" parent="1">
          <mxGeometry x="530" y="80" width="100" height="40" as="geometry" />
        </mxCell>
        <mxCell id="f8ZMk2chCt_CFVTAONVA-29" value="Attribute" style="ellipse;whiteSpace=wrap;html=1;align=center;fontStyle=4;" vertex="1" parent="1">
          <mxGeometry x="410" y="160" width="100" height="40" as="geometry" />
        </mxCell>
        <mxCell id="f8ZMk2chCt_CFVTAONVA-30" value="Shopping History" style="ellipse;whiteSpace=wrap;html=1;align=center;fontStyle=4;" vertex="1" parent="1">
          <mxGeometry x="410" y="160" width="100" height="40" as="geometry" />
        </mxCell>
        <mxCell id="f8ZMk2chCt_CFVTAONVA-31" value="Attribute" style="ellipse;whiteSpace=wrap;html=1;align=center;fontStyle=4;" vertex="1" parent="1">
          <mxGeometry x="530" y="160" width="100" height="40" as="geometry" />
        </mxCell>
        <mxCell id="f8ZMk2chCt_CFVTAONVA-32" value="Search History" style="ellipse;whiteSpace=wrap;html=1;align=center;fontStyle=4;" vertex="1" parent="1">
          <mxGeometry x="530" y="160" width="100" height="40" as="geometry" />
        </mxCell>
        <mxCell id="f8ZMk2chCt_CFVTAONVA-33" value="Purchase History" style="ellipse;whiteSpace=wrap;html=1;align=center;fontStyle=4;" vertex="1" parent="1">
          <mxGeometry x="640" y="160" width="100" height="40" as="geometry" />
        </mxCell>
      </root>
    </mxGraphModel>
  </diagram>
</mxfile>
